<svg width="30" height="30" viewBox="0 0 30 30" fill="none" xmlns="http://www.w3.org/2000/svg">
<g id="phone-01">
<path id="Icon" d="M15 21.875H15.0125M10.25 27.5H19.75C21.1501 27.5 21.8502 27.5 22.385 27.2275C22.8554 26.9878 23.2378 26.6054 23.4775 26.135C23.75 25.6002 23.75 24.9001 23.75 23.5V6.5C23.75 5.09987 23.75 4.3998 23.4775 3.86502C23.2378 3.39462 22.8554 3.01217 22.385 2.77248C21.8502 2.5 21.1501 2.5 19.75 2.5H10.25C8.84987 2.5 8.1498 2.5 7.61502 2.77248C7.14462 3.01217 6.76217 3.39462 6.52248 3.86502C6.25 4.3998 6.25 5.09987 6.25 6.5V23.5C6.25 24.9001 6.25 25.6002 6.52248 26.135C6.76217 26.6054 7.14462 26.9878 7.61502 27.2275C8.1498 27.5 8.84987 27.5 10.25 27.5ZM15.625 21.875C15.625 22.2202 15.3452 22.5 15 22.5C14.6548 22.5 14.375 22.2202 14.375 21.875C14.375 21.5298 14.6548 21.25 15 21.25C15.3452 21.25 15.625 21.5298 15.625 21.875Z" stroke="white" stroke-width="2.5" stroke-linecap="round" stroke-linejoin="round"/>
</g>
</svg>
