<svg width="30" height="30" viewBox="0 0 30 30" fill="none" xmlns="http://www.w3.org/2000/svg">
<g id="sale-03">
<path id="Icon" d="M11.2499 11.2497H11.2624M18.7499 18.7496H18.7624M19.9999 9.99971L9.99995 19.9996M22.3763 6.24786C22.6337 6.87039 23.1278 7.36522 23.7499 7.62356L25.9314 8.52719C26.5539 8.78507 27.0486 9.2797 27.3064 9.90228C27.5643 10.5249 27.5643 11.2244 27.3064 11.847L26.4035 14.0269C26.1455 14.6498 26.1451 15.35 26.4043 15.9726L27.3057 18.1519C27.4335 18.4603 27.4993 18.7908 27.4994 19.1246C27.4995 19.4584 27.4337 19.7889 27.306 20.0973C27.1783 20.4057 26.991 20.6859 26.7549 20.9219C26.5189 21.1579 26.2386 21.3451 25.9302 21.4727L23.7503 22.3757C23.1278 22.6331 22.633 23.1272 22.3747 23.7493L21.4711 25.9309C21.2132 26.5535 20.7186 27.0481 20.096 27.306C19.4735 27.5639 18.774 27.5639 18.1514 27.306L15.9715 26.403C15.3489 26.1458 14.6497 26.1463 14.0275 26.4045L11.8461 27.3068C11.2238 27.5641 10.525 27.5639 9.90291 27.3062C9.28086 27.0485 8.78652 26.5545 8.52848 25.9326L7.62462 23.7504C7.36722 23.1278 6.87315 22.633 6.25103 22.3747L4.06957 21.471C3.44729 21.2133 2.95282 20.7189 2.69485 20.0967C2.43689 19.4745 2.43654 18.7753 2.69388 18.1528L3.59682 15.9729C3.85406 15.3503 3.85353 14.651 3.59536 14.0288L2.69371 11.8457C2.56588 11.5373 2.50005 11.2068 2.5 10.873C2.49995 10.5392 2.56567 10.2086 2.6934 9.90025C2.82114 9.59185 3.00839 9.31165 3.24445 9.07565C3.48052 8.83966 3.76077 8.65249 4.0692 8.52485L6.2491 7.62187C6.87106 7.36469 7.36557 6.87123 7.6241 6.2498L8.52769 4.06826C8.78556 3.44568 9.28018 2.95105 9.90273 2.69317C10.5253 2.43529 11.2248 2.43529 11.8473 2.69317L14.0272 3.59614C14.6498 3.85339 15.349 3.85286 15.9712 3.59468L18.1536 2.69457C18.7761 2.43683 19.4754 2.43688 20.0979 2.69471C20.7203 2.95254 21.2148 3.44704 21.4728 4.06945L22.3766 6.25164L22.3763 6.24786ZM11.8749 11.2497C11.8749 11.5949 11.5951 11.8747 11.2499 11.8747C10.9048 11.8747 10.6249 11.5949 10.6249 11.2497C10.6249 10.9045 10.9048 10.6247 11.2499 10.6247C11.5951 10.6247 11.8749 10.9045 11.8749 11.2497ZM19.3749 18.7496C19.3749 19.0948 19.0951 19.3746 18.7499 19.3746C18.4047 19.3746 18.1249 19.0948 18.1249 18.7496C18.1249 18.4045 18.4047 18.1247 18.7499 18.1247C19.0951 18.1247 19.3749 18.4045 19.3749 18.7496Z" stroke="white" stroke-width="2.49998" stroke-linecap="round" stroke-linejoin="round"/>
</g>
</svg>
