<svg width="240" height="241" viewBox="0 0 240 241" fill="none" xmlns="http://www.w3.org/2000/svg">
<g id="Illustration ">
<g id="Group">
<g id="Group_2">
<path id="Vector" d="M191.441 96.8418C191.441 96.8418 184.812 88.0615 191.857 83.1835C191.857 83.1835 196.936 80.5293 200.91 81.0171C200.91 81.0171 194.654 90.1562 196.433 91.2035C198.198 92.2652 202.66 80.5293 202.66 80.5293C202.66 80.5293 213.865 80.142 217.351 82.0932C217.351 82.0932 207.337 89.2953 209.317 89.8836C211.297 90.4718 222.057 83.4705 222.057 83.4705C222.057 83.4705 232.315 85.8808 231.368 92.1791C230.421 98.4774 226.72 100.199 225.17 99.9408C223.606 99.6682 214.64 95.5937 214.367 96.8705C214.08 98.1474 219.36 102.695 223.219 103.14C223.219 103.14 215.4 110.744 210.694 108.119C205.974 105.493 205.802 101.777 202.861 100.199C199.92 98.6209 197.337 98.463 198.499 99.9551C199.661 101.447 205.056 103.155 206.605 106.325C208.141 109.496 209.575 111.662 204.597 110.586C199.618 109.51 191.67 105.321 191.584 101.089C191.441 96.8418 191.441 96.8418 191.441 96.8418Z" fill="#82B378"/>
<g id="Group_3">
<path id="Vector_2" d="M226.261 92.0214C226.261 92.0214 198.169 89.1807 191.441 96.842C191.441 96.842 189.805 100.873 185.343 104.36L184.568 106.11C184.568 106.11 189.776 101.275 191.541 101.06C191.541 101.089 189.432 90.931 226.261 92.0214Z" fill="#82B378"/>
<path id="Vector_3" d="M185.343 104.374C185.343 104.374 179.016 108.463 178.098 116.426L179.188 116.598C179.188 116.598 181.641 108.463 185.329 105.45C189.016 102.423 185.343 104.374 185.343 104.374Z" fill="#82B378"/>
</g>
</g>
<g id="Group_4">
<path id="Vector_4" d="M158.944 75.8664C158.944 75.8664 144.253 67.6456 151.111 56.4837C151.111 56.4837 156.592 49.6258 162.474 47.8755C162.474 47.8755 159.346 64.518 162.474 64.9054C165.601 65.2927 164.626 46.1108 164.626 46.1108C164.626 46.1108 180.092 38.6648 186.161 39.253C186.161 39.253 176.563 55.5081 179.704 55.1064C182.832 54.719 193.607 38.263 193.607 38.263C193.607 38.263 209.46 35.3219 212.014 44.7192C214.553 54.1164 210.45 58.8222 208.097 59.4105C205.744 59.9987 190.666 59.7978 191.067 61.7634C191.455 63.7146 201.641 66.8565 207.322 65.0919C207.322 65.0919 201.053 80.5579 192.832 79.7832C184.611 78.9941 182.057 73.9153 176.979 73.5135C171.885 73.1262 168.17 74.4891 170.709 75.8664C173.248 77.2438 181.871 76.3112 185.974 79.8119C190.092 83.3125 193.42 85.4646 185.773 87.0284C178.141 88.5922 164.425 87.6166 161.685 81.7487C158.944 75.8664 158.944 75.8664 158.944 75.8664Z" fill="#A8D29F"/>
<g id="Group_5">
<path id="Vector_5" d="M204.77 47.6602C204.77 47.6602 163.651 60.9741 158.96 75.8519C158.96 75.8519 159.161 82.5089 155.043 90.1415V93.0826C155.043 93.0826 159.347 83.0972 161.7 81.7199C161.686 81.7342 152.489 68.8076 204.77 47.6602Z" fill="#82B378"/>
<path id="Vector_6" d="M155.029 90.1557C155.029 90.1557 148.687 99.7825 152.303 111.504L153.938 111.059C153.938 111.059 152.36 98.147 155.674 91.6621C158.988 85.163 155.029 90.1557 155.029 90.1557Z" fill="#82B378"/>
</g>
</g>
<g id="Group_6">
<path id="Vector_7" d="M81.5139 80.07C81.5139 80.07 98.6011 72.8391 92.4463 59.7833C92.4463 59.7833 87.267 51.6056 81.0404 48.9657C81.0404 48.9657 82.4608 67.5881 78.9745 67.6311C75.4882 67.6742 78.8884 46.7706 78.8884 46.7706C78.8884 46.7706 62.8485 36.7421 56.1198 36.656C56.1198 36.656 64.6706 55.6227 61.2847 54.8193C57.8988 54.0159 48.0855 34.6762 48.0855 34.6762C48.0855 34.6762 31.07 29.5399 27.139 39.5254C23.2079 49.5109 27.1533 55.1636 29.6497 56.0962C32.1461 57.0287 48.7024 58.6356 48.0281 60.7302C47.3682 62.8249 35.8189 65.0343 29.8219 62.4088C29.8219 62.4088 34.8146 80.113 43.9249 80.2565C53.0352 80.3999 56.4354 75.1203 62.0594 75.3068C67.6834 75.4933 71.6002 77.4445 68.6447 78.6353C65.6892 79.8261 56.3637 77.7744 51.4284 81.1029C46.493 84.4314 42.5906 86.397 50.7684 89.0368C58.9462 91.6767 74.0822 92.2649 77.798 86.1674C81.5139 80.07 81.5139 80.07 81.5139 80.07Z" fill="#A8D29F"/>
<g id="Group_7">
<path id="Vector_8" d="M34.7295 43.6284C34.7295 43.6284 78.172 63.1977 81.5149 80.0841C81.5149 80.0841 80.4962 87.358 84.0686 96.2244L83.71 99.4381C83.71 99.4381 80.195 87.9749 77.7847 86.1815C77.799 86.1815 89.4487 73.1258 34.7295 43.6284Z" fill="#82B378"/>
<path id="Vector_9" d="M84.0679 96.2102C84.0679 96.2102 89.8497 107.53 84.4696 119.94L82.7336 119.266C82.7336 119.266 86.0334 105.306 83.1784 97.7883C80.3377 90.2705 84.0679 96.2102 84.0679 96.2102Z" fill="#82B378"/>
</g>
</g>
<path id="Vector_10" d="M46.4651 122.049C43.4522 117.687 43.1079 113.642 43.1079 113.642C43.1079 113.642 51.4578 107.645 46.5368 101.332C46.5368 101.332 42.7348 97.5443 39.0477 96.87C39.0477 96.87 42.0892 106.769 40.2098 107.214C38.3303 107.673 37.613 95.9518 37.613 95.9518C37.613 95.9518 27.7136 92.4942 24.0695 93.2689C24.0695 93.2689 31.0134 102.48 29.0766 102.465C27.1541 102.437 19.4785 93.1829 19.4785 93.1829C19.4785 93.1829 9.65079 92.4655 8.74694 98.3478C7.84308 104.23 10.6694 106.798 12.1328 106.999C13.5962 107.2 22.7496 106.038 22.6348 107.257C22.5343 108.477 16.566 111.074 12.9936 110.385C12.9936 110.385 17.8572 119.352 22.7926 118.319C27.7279 117.286 28.9331 114.015 31.989 113.426C35.0592 112.838 37.4121 113.412 35.9487 114.431C34.4997 115.435 29.2057 115.464 26.9389 117.874C24.6864 120.284 22.8069 121.819 27.5558 122.25C32.3046 122.68 40.5541 121.145 41.8166 117.386C41.874 117.228 41.9171 117.071 41.9745 116.913C41.9027 117.214 41.8166 117.386 41.8166 117.386C42.7348 117.788 44.2843 120.026 45.3747 121.748C45.5325 122.049 45.7907 122.451 46.1494 122.996C46.2929 123.24 46.422 123.455 46.5081 123.598C48.6027 127.501 48.531 134.66 48.531 134.66L49.5496 134.818C50.97 127.458 46.4651 122.049 46.4651 122.049Z" fill="#82B378"/>
<path id="Vector_11" d="M30.3379 101.059L112.202 52.0503C116.721 49.353 122.345 49.353 126.864 52.0503L208.728 101.059V180.943L30.3379 171.991V101.059Z" fill="#6CA1D6"/>
<path id="Vector_12" d="M193.377 65.6655H45.704V193.296H193.377V65.6655Z" fill="white"/>
<g id="Group_8">
<g id="Group_9">
<g id="Vector_13">
<path d="M52.3112 72.6362C53.0872 72.3148 53.4557 71.4252 53.1343 70.6492C52.8128 69.8732 51.9232 69.5047 51.1472 69.8261C50.3712 70.1476 50.0027 71.0372 50.3242 71.8132C50.6456 72.5892 51.5352 72.9577 52.3112 72.6362Z" fill="url(#paint0_linear_97_19940)"/>
<path d="M185.744 71.2321C185.744 70.3999 186.418 69.7113 187.265 69.7113C188.097 69.7113 188.786 70.3856 188.786 71.2321C188.786 72.0642 188.111 72.7528 187.265 72.7528C186.418 72.7528 185.744 72.0785 185.744 71.2321Z" fill="url(#paint1_linear_97_19940)"/>
<path d="M187.267 71.0744H51.7314V71.4044H187.267V71.0744Z" fill="url(#paint2_linear_97_19940)"/>
<path d="M51.8874 70.6295H51.5575V206.165H51.8874V70.6295Z" fill="url(#paint3_linear_97_19940)"/>
<path d="M187.48 70.6296H187.15V206.165H187.48V70.6296Z" fill="url(#paint4_linear_97_19940)"/>
</g>
</g>
</g>
<g id="Group_10">
<path id="Vector_14" d="M119.447 141.934C117.969 141.934 116.592 141.116 115.889 139.811C111.657 131.934 105.559 125.478 98.7013 121.633C96.7645 120.543 96.0615 118.089 97.1519 116.138C98.2422 114.201 100.696 113.498 102.647 114.589C108.859 118.075 114.354 123.082 118.844 129.309C128.371 109.28 142.373 92.3795 158.786 81.2032C160.623 79.955 163.133 80.4284 164.396 82.2649C165.644 84.1013 165.171 86.612 163.334 87.8745C146.304 99.4669 132.058 117.774 123.192 139.438C122.603 140.887 121.226 141.862 119.662 141.934C119.59 141.934 119.519 141.934 119.447 141.934Z" fill="url(#paint5_linear_97_19940)"/>
<path id="Vector_15" d="M116.262 160.513C95.5738 160.513 78.7449 143.684 78.7449 122.996C78.7449 102.308 95.5738 85.4785 116.262 85.4785C122.431 85.4785 128.557 87.0136 133.966 89.9117C135.932 90.9591 136.663 93.4124 135.616 95.3779C134.569 97.3435 132.116 98.0752 130.15 97.0278C125.903 94.761 121.111 93.5559 116.262 93.5559C100.021 93.5559 86.8079 106.769 86.8079 123.01C86.8079 139.251 100.021 152.465 116.262 152.465C132.503 152.465 145.716 139.237 145.716 122.996C145.716 120.313 145.358 117.659 144.64 115.105C144.038 112.953 145.3 110.729 147.438 110.141C149.59 109.538 151.814 110.801 152.402 112.939C153.306 116.195 153.765 119.581 153.765 122.996C153.779 143.684 136.95 160.513 116.262 160.513Z" fill="url(#paint6_linear_97_19940)"/>
</g>
<g id="Vector_16" filter="url(#filter0_d_97_19940)">
<path d="M196.618 108.094C201.951 104.902 208.728 108.743 208.728 114.958V199.643C208.728 204.061 205.146 207.643 200.728 207.643H38.3379C33.9196 207.643 30.3379 204.061 30.3379 199.643V114.958C30.3379 108.743 37.1149 104.901 42.4472 108.094L115.424 151.783C117.954 153.298 121.112 153.298 123.642 151.783L196.618 108.094Z" fill="#B9DCFF"/>
<path d="M196.875 108.523C201.874 105.53 208.228 109.131 208.228 114.958V199.643C208.228 203.785 204.87 207.143 200.728 207.143H38.3379C34.1958 207.143 30.8379 203.785 30.8379 199.643V114.958C30.8379 109.131 37.1913 105.53 42.1904 108.523L115.167 152.212C117.855 153.822 121.211 153.822 123.899 152.212L196.875 108.523Z" stroke="#B9DCFF"/>
</g>
<path id="Vector_17" d="M30.3379 207.643L112.044 149.065C116.52 145.851 122.546 145.851 127.022 149.065L208.728 207.643H30.3379Z" fill="#A2D1FF"/>
</g>
</g>
<defs>
<filter id="filter0_d_97_19940" x="28.3379" y="105.945" width="182.39" height="104.698" filterUnits="userSpaceOnUse" color-interpolation-filters="sRGB">
<feFlood flood-opacity="0" result="BackgroundImageFix"/>
<feColorMatrix in="SourceAlpha" type="matrix" values="0 0 0 0 0 0 0 0 0 0 0 0 0 0 0 0 0 0 127 0" result="hardAlpha"/>
<feOffset dy="1"/>
<feGaussianBlur stdDeviation="1"/>
<feColorMatrix type="matrix" values="0 0 0 0 0.0627451 0 0 0 0 0.0941176 0 0 0 0 0.156863 0 0 0 0.05 0"/>
<feBlend mode="normal" in2="BackgroundImageFix" result="effect1_dropShadow_97_19940"/>
<feBlend mode="normal" in="SourceGraphic" in2="effect1_dropShadow_97_19940" result="shape"/>
</filter>
<linearGradient id="paint0_linear_97_19940" x1="48.7939" y1="86.038" x2="209.365" y2="136.69" gradientUnits="userSpaceOnUse">
<stop stop-color="#3C82D0"/>
<stop offset="0.332306" stop-color="#A8BEFB"/>
<stop offset="0.732242" stop-color="#A09DFF"/>
<stop offset="1" stop-color="#8BD8F1"/>
</linearGradient>
<linearGradient id="paint1_linear_97_19940" x1="48.7939" y1="86.038" x2="209.365" y2="136.69" gradientUnits="userSpaceOnUse">
<stop stop-color="#3C82D0"/>
<stop offset="0.332306" stop-color="#A8BEFB"/>
<stop offset="0.732242" stop-color="#A09DFF"/>
<stop offset="1" stop-color="#8BD8F1"/>
</linearGradient>
<linearGradient id="paint2_linear_97_19940" x1="48.7939" y1="86.038" x2="209.365" y2="136.69" gradientUnits="userSpaceOnUse">
<stop stop-color="#3C82D0"/>
<stop offset="0.332306" stop-color="#A8BEFB"/>
<stop offset="0.732242" stop-color="#A09DFF"/>
<stop offset="1" stop-color="#8BD8F1"/>
</linearGradient>
<linearGradient id="paint3_linear_97_19940" x1="48.7939" y1="86.038" x2="209.365" y2="136.69" gradientUnits="userSpaceOnUse">
<stop stop-color="#3C82D0"/>
<stop offset="0.332306" stop-color="#A8BEFB"/>
<stop offset="0.732242" stop-color="#A09DFF"/>
<stop offset="1" stop-color="#8BD8F1"/>
</linearGradient>
<linearGradient id="paint4_linear_97_19940" x1="48.7939" y1="86.038" x2="209.365" y2="136.69" gradientUnits="userSpaceOnUse">
<stop stop-color="#3C82D0"/>
<stop offset="0.332306" stop-color="#A8BEFB"/>
<stop offset="0.732242" stop-color="#A09DFF"/>
<stop offset="1" stop-color="#8BD8F1"/>
</linearGradient>
<linearGradient id="paint5_linear_97_19940" x1="68.0288" y1="98.2339" x2="114.545" y2="173.256" gradientUnits="userSpaceOnUse">
<stop stop-color="#99BF73"/>
<stop offset="0.95" stop-color="#3B6F30"/>
<stop offset="1" stop-color="#366B2D"/>
</linearGradient>
<linearGradient id="paint6_linear_97_19940" x1="47.3923" y1="107.133" x2="106.731" y2="192.995" gradientUnits="userSpaceOnUse">
<stop stop-color="#99BF73"/>
<stop offset="0.95" stop-color="#3B6F30"/>
<stop offset="1" stop-color="#366B2D"/>
</linearGradient>
</defs>
</svg>
