<svg width="160" height="32" viewBox="0 0 160 32" fill="none" xmlns="http://www.w3.org/2000/svg">
<g id="Frame 2">
<g id="_&#227;&#131;&#172;&#227;&#130;&#164;&#227;&#131;&#164;&#227;&#131;&#188;_1-2">
<g id="Group">
<g id="Group_2">
<g id="Group_3">
<path id="Vector" d="M46.1075 9.84709H39.9199V6.71094H55.8884V9.84932H49.7009V26.8996H46.1097V9.84709H46.1075Z" fill="black"/>
<path id="Vector_2" d="M65.9857 25.1576H65.9009C65.2162 26.3554 63.5923 27.2387 61.6517 27.2387C59.4547 27.2387 56.5215 26.1837 56.5215 22.9895C56.5215 18.9121 61.6517 18.3433 65.9299 18.3433V18.002C65.9299 16.3179 64.5024 15.4926 62.796 15.4926C61.3417 15.4926 59.9454 16.1774 59.0599 17.0607L57.2933 14.9796C58.8323 13.5521 61.0004 12.8115 63.0815 12.8115C67.9865 12.8115 69.1821 15.8339 69.1821 18.5708V26.8952H65.9879V25.1554L65.9857 25.1576ZM65.9299 20.6519H65.1604C62.9923 20.6519 59.9431 20.9084 59.9431 22.9315C59.9431 24.2431 61.1699 24.6424 62.3388 24.6424C64.6764 24.6424 65.9299 23.304 65.9299 21.1359V20.6519Z" fill="black"/>
<path id="Vector_3" d="M76.9783 5.34082V14.9523H77.0631C77.7768 14.069 79.1442 12.8154 81.6535 12.8154C85.5615 12.8154 88.2961 15.9493 88.2961 20.0022C88.2961 24.0551 85.731 27.3006 81.5665 27.3006C79.655 27.3006 77.8036 26.4151 76.8623 24.847H76.8065V26.8991H73.5566V5.34082H76.9828H76.9783ZM80.8862 15.6058C78.3769 15.6058 76.8668 17.9144 76.8668 20.0535C76.8668 22.1926 78.3769 24.4455 80.8862 24.4455C83.5383 24.4455 84.8209 22.1369 84.8209 19.9978C84.8209 17.8587 83.5383 15.608 80.8862 15.608V15.6058Z" fill="black"/>
<path id="Vector_4" d="M106.881 6.71094H110.472V23.7055H119.053V26.8996H106.881V6.71094Z" fill="black"/>
<path id="Vector_5" d="M95.4197 13.2129H91.998V26.8973H95.4197V13.2129Z" fill="black"/>
<path id="Vector_6" d="M125.816 13.2129H122.395V26.8973H125.816V13.2129Z" fill="black"/>
<path id="Vector_7" d="M132.452 15.9498H129.857V13.2129H132.452V11.1898C132.452 7.90864 133.734 5 137.981 5C138.722 5 139.208 5.05576 139.721 5.20075L139.493 8.10939C139.123 7.99563 138.668 7.90864 138.182 7.90864C136.214 7.90864 135.873 9.61947 135.873 10.9868V13.2107H139.038V15.9475H135.873V26.8973H132.452V15.9475V15.9498Z" fill="black"/>
<path id="Vector_8" d="M155.222 21.1381H144.814C144.957 23.0787 146.726 24.5018 148.722 24.5018C150.433 24.5018 151.573 23.817 152.342 22.7352L154.622 24.5598C153.283 26.3844 151.343 27.2967 148.749 27.2967C144.528 27.2967 141.395 24.5866 141.395 20.1411C141.395 15.6956 144.502 12.8137 148.637 12.8137C152.458 12.8137 155.251 15.2941 155.251 20.2258C155.251 20.5381 155.251 20.8236 155.222 21.1381ZM151.827 18.6845C151.827 16.9179 150.83 15.3766 148.604 15.3766C146.581 15.3766 144.952 16.7752 144.812 18.6845H151.827Z" fill="black"/>
</g>
<path id="Vector_9" d="M93.6986 10.6013C94.8319 10.6013 95.7507 9.68252 95.7507 8.54918C95.7507 7.41583 94.8319 6.49707 93.6986 6.49707C92.5652 6.49707 91.6465 7.41583 91.6465 8.54918C91.6465 9.68252 92.5652 10.6013 93.6986 10.6013Z" fill="url(#paint0_linear_1033_7493)"/>
<path id="Vector_10" d="M124.113 10.6013C125.246 10.6013 126.165 9.68252 126.165 8.54918C126.165 7.41583 125.246 6.49707 124.113 6.49707C122.979 6.49707 122.061 7.41583 122.061 8.54918C122.061 9.68252 122.979 10.6013 124.113 10.6013Z" fill="url(#paint1_linear_1033_7493)"/>
</g>
<g id="Group_4">
<path id="Vector_11" d="M25.7737 15.2897L32.6773 11.3037L34.7941 14.9752C35.3606 15.9589 35.6796 16.8667 35.7465 17.6965C35.8179 18.5329 35.626 19.2913 35.1732 19.9716C34.716 20.6631 34.0089 21.2854 33.0475 21.8386L30.4266 23.3531L25.7715 15.2897H25.7737Z" fill="url(#paint2_linear_1033_7493)"/>
<g id="Group_5">
<path id="Vector_12" d="M9.63508 24.4509L5 16.4231L10.1838 10.3828L11.5021 12.6691L13.5207 11.5048L14.0226 12.3725L12.0062 13.5368L18.4948 24.7788L17.9885 25.071C16.8487 25.7268 15.7245 26.1394 14.6047 26.3067C13.4605 26.4896 12.459 26.4138 11.6047 26.0814C10.728 25.7602 10.07 25.216 9.62839 24.4487H9.63062L9.63508 24.4509Z" fill="url(#paint3_linear_1033_7493)"/>
<path id="Vector_13" d="M19.9049 7.81991L13.4395 11.5527L22.7966 27.7598L29.262 24.027L19.9049 7.81991Z" fill="url(#paint4_linear_1033_7493)"/>
</g>
</g>
</g>
</g>
</g>
<defs>
<linearGradient id="paint0_linear_1033_7493" x1="91.6465" y1="8.54918" x2="95.7529" y2="8.54918" gradientUnits="userSpaceOnUse">
<stop stop-color="#40CCFF"/>
<stop offset="0.23" stop-color="#3FC8FF"/>
<stop offset="0.46" stop-color="#3DBCFF"/>
<stop offset="0.69" stop-color="#39A8FF"/>
<stop offset="0.91" stop-color="#358CFF"/>
<stop offset="1" stop-color="#3380FF"/>
</linearGradient>
<linearGradient id="paint1_linear_1033_7493" x1="122.061" y1="8.54918" x2="126.165" y2="8.54918" gradientUnits="userSpaceOnUse">
<stop stop-color="#99BF73"/>
<stop offset="0.95" stop-color="#3B6F30"/>
<stop offset="1" stop-color="#366B2D"/>
</linearGradient>
<linearGradient id="paint2_linear_1033_7493" x1="25.7737" y1="17.3262" x2="35.7621" y2="17.3262" gradientUnits="userSpaceOnUse">
<stop stop-color="#663D42"/>
<stop offset="0.24" stop-color="#6C413E"/>
<stop offset="0.56" stop-color="#7E4F35"/>
<stop offset="0.94" stop-color="#9B6626"/>
<stop offset="1" stop-color="#A16B24"/>
</linearGradient>
<linearGradient id="paint3_linear_1033_7493" x1="5" y1="18.3927" x2="18.4971" y2="18.3927" gradientUnits="userSpaceOnUse">
<stop stop-color="#40CCFF"/>
<stop offset="0.23" stop-color="#3FC8FF"/>
<stop offset="0.46" stop-color="#3DBCFF"/>
<stop offset="0.69" stop-color="#39A8FF"/>
<stop offset="0.91" stop-color="#358CFF"/>
<stop offset="1" stop-color="#3380FF"/>
</linearGradient>
<linearGradient id="paint4_linear_1033_7493" x1="13.4378" y1="17.79" x2="29.2591" y2="17.79" gradientUnits="userSpaceOnUse">
<stop stop-color="#99BF73"/>
<stop offset="0.95" stop-color="#3B6F30"/>
<stop offset="1" stop-color="#366B2D"/>
</linearGradient>
</defs>
</svg>
